<svg width="160" height="160" viewBox="0 0 160 160" xmlns="http://www.w3.org/2000/svg" role="img" aria-label="Schrodingerspet">
  <defs>
    <linearGradient id="paper" x1="0" y1="0" x2="0" y2="160" gradientUnits="userSpaceOnUse">
      <stop offset="0%" stop-color="#d0ab72"/>
      <stop offset="100%" stop-color="#b58a56"/>
    </linearGradient>
  </defs>
  <rect width="160" height="160" fill="url(#paper)"/>
  <circle cx="80" cy="80" r="66.5" fill="none" stroke="#2f2418" stroke-width="3.5"/>
  <path d="M31 49C44 36 61 28 80 28C99 28 116 36 129 49" fill="none" stroke="#2f2418" stroke-width="5.5" stroke-linecap="round"/>
  <path d="M35 111C47 122 63 129 80 129C97 129 113 122 125 111" fill="none" stroke="#2f2418" stroke-width="5.5" stroke-linecap="round"/>
  <rect x="49" y="86" width="62" height="26" rx="2" fill="#3a2a1f"/>
  <ellipse cx="80" cy="75" rx="26" ry="21" fill="#7c5e3b"/>
  <path d="M62 57L67 45L74 58Z" fill="#7c5e3b"/>
  <path d="M86 58L93 45L98 57Z" fill="#7c5e3b"/>
  <rect x="58" y="65" width="44" height="16" rx="7" fill="#1c1714"/>
  <circle cx="76" cy="84" r="3.2" fill="#f1e3c2"/>
  <circle cx="84" cy="84" r="3.2" fill="#f1e3c2"/>
  <rect x="77" y="87" width="6" height="3.5" rx="1.7" fill="#1c1714"/>
</svg>
